<svg xmlns="http://www.w3.org/2000/svg" viewBox="40 127 220 46">
    <g id="368cd2cd-6267-4aae-81b6-0a90e162fbc8" fill="#130E04"
       transform="matrix(2.8268027305603027,0,0,2.8268027305603027,103.16898351388527,126.15591937862986)">
        <path d="M6.31 1.26L6.31 1.26Q8.27 1.26 9.77 2.51L9.77 2.51L9.77 2.51Q9.90 2.60 9.90 2.79L9.90 2.79L9.90 2.79Q9.90 2.95 9.79 3.09L9.79 3.09L9.79 3.09Q9.67 3.22 9.48 3.22L9.48 3.22L9.48 3.22Q9.32 3.22 9.13 3.05L9.13 3.05L9.13 3.05Q8.06 2.10 6.31 2.10L6.31 2.10L6.31 2.10Q5.08 2.10 4.01 2.76L4.01 2.76L4.01 2.76Q2.94 3.42 2.31 4.51L2.31 4.51L2.31 4.51Q1.68 5.61 1.68 6.86L1.68 6.86L1.68 6.86Q1.68 8.15 2.30 9.25L2.30 9.25L2.30 9.25Q2.93 10.35 4.00 10.99L4.00 10.99L4.00 10.99Q5.07 11.63 6.31 11.63L6.31 11.63L6.31 11.63Q7.97 11.63 9.21 10.61L9.21 10.61L9.21 10.61Q9.31 10.54 9.42 10.54L9.42 10.54L9.42 10.54Q9.59 10.54 9.72 10.67L9.72 10.67L9.72 10.67Q9.86 10.79 9.86 10.98L9.86 10.98L9.86 10.98Q9.86 11.16 9.76 11.27L9.76 11.27L9.76 11.27Q8.55 12.47 6.31 12.47L6.31 12.47L6.31 12.47Q4.84 12.47 3.58 11.71L3.58 11.71L3.58 11.71Q2.32 10.95 1.58 9.65L1.58 9.65L1.58 9.65Q0.84 8.36 0.84 6.86L0.84 6.86L0.84 6.86Q0.84 5.36 1.57 4.07L1.57 4.07L1.57 4.07Q2.31 2.79 3.56 2.02L3.56 2.02L3.56 2.02Q4.82 1.26 6.31 1.26L6.31 1.26ZM11.72 1.82L11.72 1.82Q11.72 1.62 11.84 1.51L11.84 1.51L11.84 1.51Q11.96 1.40 12.14 1.40L12.14 1.40L12.14 1.40Q12.33 1.40 12.45 1.51L12.45 1.51L12.45 1.51Q12.56 1.62 12.56 1.82L12.56 1.82L12.56 10.02L12.56 10.02Q12.56 10.67 12.83 11.08L12.83 11.08L12.83 11.08Q13.10 11.49 13.54 11.49L13.54 11.49L13.89 11.49L13.89 11.49Q14.04 11.49 14.14 11.61L14.14 11.61L14.14 11.61Q14.24 11.72 14.24 11.91L14.24 11.91L14.24 11.91Q14.24 12.10 14.13 12.21L14.13 12.21L14.13 12.21Q14.01 12.33 13.82 12.33L13.82 12.33L13.54 12.33L13.54 12.33Q12.74 12.33 12.23 11.69L12.23 11.69L12.23 11.69Q11.72 11.05 11.72 10.02L11.72 10.02L11.72 1.82ZM16.06 5.10L16.06 5.10Q16.06 4.90 16.18 4.79L16.18 4.79L16.18 4.79Q16.30 4.68 16.48 4.68L16.48 4.68L16.48 4.68Q16.67 4.68 16.79 4.79L16.79 4.79L16.79 4.79Q16.90 4.90 16.90 5.10L16.90 5.10L16.90 11.91L16.90 11.91Q16.90 12.10 16.79 12.21L16.79 12.21L16.79 12.21Q16.67 12.33 16.48 12.33L16.48 12.33L16.48 12.33Q16.30 12.33 16.18 12.21L16.18 12.21L16.18 12.21Q16.06 12.10 16.06 11.91L16.06 11.91L16.06 5.10ZM16.48 1.76L16.48 1.76Q16.74 1.76 16.93 1.93L16.93 1.93L16.93 1.93Q17.12 2.10 17.12 2.41L17.12 2.41L17.12 2.41Q17.12 2.69 16.93 2.88L16.93 2.88L16.93 2.88Q16.74 3.07 16.46 3.07L16.46 3.07L16.46 3.07Q16.18 3.07 16.00 2.88L16.00 2.88L16.00 2.88Q15.82 2.69 15.82 2.41L15.82 2.41L15.82 2.41Q15.82 2.10 16.02 1.93L16.02 1.93L16.02 1.93Q16.21 1.76 16.48 1.76L16.48 1.76ZM23.60 4.59L23.60 4.59Q24.71 4.59 25.61 5.10L25.61 5.10L25.61 5.10Q26.50 5.61 27.01 6.51L27.01 6.51L27.01 6.51Q27.52 7.41 27.52 8.51L27.52 8.51L27.52 8.51Q27.52 9.60 27.01 10.50L27.01 10.50L27.01 10.50Q26.50 11.40 25.61 11.91L25.61 11.91L25.61 11.91Q24.71 12.42 23.60 12.42L23.60 12.42L23.60 12.42Q22.61 12.42 21.81 11.99L21.81 11.99L21.81 11.99Q21.00 11.56 20.54 10.82L20.54 10.82L20.54 15.19L20.54 15.19Q20.54 15.39 20.43 15.50L20.43 15.50L20.43 15.50Q20.31 15.61 20.12 15.61L20.12 15.61L20.12 15.61Q19.94 15.61 19.82 15.50L19.82 15.50L19.82 15.50Q19.70 15.39 19.70 15.19L19.70 15.19L19.70 8.46L19.70 8.43L19.70 8.43Q19.71 7.35 20.23 6.47L20.23 6.47L20.23 6.47Q20.75 5.59 21.64 5.09L21.64 5.09L21.64 5.09Q22.53 4.59 23.60 4.59L23.60 4.59ZM23.60 11.63L23.60 11.63Q24.47 11.63 25.17 11.23L25.17 11.23L25.17 11.23Q25.87 10.82 26.28 10.11L26.28 10.11L26.28 10.11Q26.68 9.39 26.68 8.51L26.68 8.51L26.68 8.51Q26.68 7.63 26.28 6.92L26.28 6.92L26.28 6.92Q25.87 6.20 25.17 5.79L25.17 5.79L25.17 5.79Q24.47 5.38 23.60 5.38L23.60 5.38L23.60 5.38Q22.74 5.38 22.04 5.79L22.04 5.79L22.04 5.79Q21.34 6.20 20.94 6.92L20.94 6.92L20.94 6.92Q20.54 7.63 20.54 8.51L20.54 8.51L20.54 8.51Q20.54 9.39 20.94 10.11L20.94 10.11L20.94 10.11Q21.34 10.82 22.04 11.23L22.04 11.23L22.04 11.23Q22.74 11.63 23.60 11.63L23.60 11.63ZM33.53 4.59L33.53 4.59Q34.64 4.59 35.53 5.10L35.53 5.10L35.53 5.10Q36.43 5.61 36.94 6.51L36.94 6.51L36.94 6.51Q37.45 7.41 37.45 8.51L37.45 8.51L37.45 8.51Q37.45 9.60 36.94 10.50L36.94 10.50L36.94 10.50Q36.43 11.40 35.53 11.91L35.53 11.91L35.53 11.91Q34.64 12.42 33.53 12.42L33.53 12.42L33.53 12.42Q32.54 12.42 31.73 11.99L31.73 11.99L31.73 11.99Q30.93 11.56 30.46 10.82L30.46 10.82L30.46 15.19L30.46 15.19Q30.46 15.39 30.35 15.50L30.35 15.50L30.35 15.50Q30.24 15.61 30.04 15.61L30.04 15.61L30.04 15.61Q29.86 15.61 29.74 15.50L29.74 15.50L29.74 15.50Q29.62 15.39 29.62 15.19L29.62 15.19L29.62 8.46L29.62 8.43L29.62 8.43Q29.64 7.35 30.16 6.47L30.16 6.47L30.16 6.47Q30.67 5.59 31.56 5.09L31.56 5.09L31.56 5.09Q32.45 4.59 33.53 4.59L33.53 4.59ZM33.53 11.63L33.53 11.63Q34.40 11.63 35.10 11.23L35.10 11.23L35.10 11.23Q35.80 10.82 36.20 10.11L36.20 10.11L36.20 10.11Q36.61 9.39 36.61 8.51L36.61 8.51L36.61 8.51Q36.61 7.63 36.20 6.92L36.20 6.92L36.20 6.92Q35.80 6.20 35.10 5.79L35.10 5.79L35.10 5.79Q34.40 5.38 33.53 5.38L33.53 5.38L33.53 5.38Q32.66 5.38 31.96 5.79L31.96 5.79L31.96 5.79Q31.26 6.20 30.86 6.92L30.86 6.92L30.86 6.92Q30.46 7.63 30.46 8.51L30.46 8.51L30.46 8.51Q30.46 9.39 30.86 10.11L30.86 10.11L30.86 10.11Q31.26 10.82 31.96 11.23L31.96 11.23L31.96 11.23Q32.66 11.63 33.53 11.63L33.53 11.63ZM42.73 4.61L42.73 4.61Q43.75 4.61 44.56 5.09L44.56 5.09L44.56 5.09Q45.36 5.57 45.81 6.43L45.81 6.43L45.81 6.43Q46.26 7.28 46.26 8.37L46.26 8.37L46.26 8.37Q46.26 8.55 46.14 8.66L46.14 8.66L46.14 8.66Q46.03 8.76 45.85 8.76L45.85 8.76L39.98 8.76L39.98 8.76Q40.03 9.59 40.42 10.24L40.42 10.24L40.42 10.24Q40.81 10.89 41.47 11.26L41.47 11.26L41.47 11.26Q42.13 11.62 42.94 11.62L42.94 11.62L42.94 11.62Q43.48 11.62 44.04 11.43L44.04 11.43L44.04 11.43Q44.59 11.24 44.91 10.93L44.91 10.93L44.91 10.93Q45.05 10.82 45.21 10.82L45.21 10.82L45.21 10.82Q45.36 10.82 45.46 10.91L45.46 10.91L45.46 10.91Q45.61 11.03 45.61 11.20L45.61 11.20L45.61 11.20Q45.61 11.34 45.49 11.47L45.49 11.47L45.49 11.47Q45.04 11.87 44.32 12.14L44.32 12.14L44.32 12.14Q43.60 12.40 42.94 12.40L42.94 12.40L42.94 12.40Q41.83 12.40 40.97 11.91L40.97 11.91L40.97 11.91Q40.11 11.41 39.62 10.52L39.62 10.52L39.62 10.52Q39.13 9.63 39.13 8.51L39.13 8.51L39.13 8.51Q39.13 7.38 39.59 6.49L39.59 6.49L39.59 6.49Q40.04 5.60 40.86 5.10L40.86 5.10L40.86 5.10Q41.68 4.61 42.73 4.61L42.73 4.61ZM42.73 5.39L42.73 5.39Q41.64 5.39 40.89 6.12L40.89 6.12L40.89 6.12Q40.14 6.85 40.00 8.04L40.00 8.04L45.44 8.04L45.44 8.04Q45.35 6.85 44.60 6.12L44.60 6.12L44.60 6.12Q43.86 5.39 42.73 5.39L42.73 5.39ZM55.06 1.40L55.06 1.40Q55.26 1.40 55.37 1.51L55.37 1.51L55.37 1.51Q55.48 1.62 55.48 1.82L55.48 1.82L55.48 8.55L55.48 8.58L55.48 8.58Q55.47 9.66 54.95 10.54L54.95 10.54L54.95 10.54Q54.43 11.42 53.54 11.92L53.54 11.92L53.54 11.92Q52.65 12.42 51.58 12.42L51.58 12.42L51.58 12.42Q50.47 12.42 49.57 11.91L49.57 11.91L49.57 11.91Q48.68 11.40 48.17 10.50L48.17 10.50L48.17 10.50Q47.66 9.60 47.66 8.50L47.66 8.50L47.66 8.50Q47.66 7.41 48.17 6.51L48.17 6.51L48.17 6.51Q48.68 5.61 49.57 5.10L49.57 5.10L49.57 5.10Q50.47 4.59 51.58 4.59L51.58 4.59L51.58 4.59Q52.57 4.59 53.38 5.02L53.38 5.02L53.38 5.02Q54.18 5.45 54.64 6.19L54.64 6.19L54.64 1.82L54.64 1.82Q54.64 1.62 54.76 1.51L54.76 1.51L54.76 1.51Q54.88 1.40 55.06 1.40L55.06 1.40ZM51.58 11.63L51.58 11.63Q52.44 11.63 53.14 11.22L53.14 11.22L53.14 11.22Q53.84 10.81 54.24 10.09L54.24 10.09L54.24 10.09Q54.64 9.38 54.64 8.50L54.64 8.50L54.64 8.50Q54.64 7.62 54.24 6.90L54.24 6.90L54.24 6.90Q53.84 6.19 53.14 5.78L53.14 5.78L53.14 5.78Q52.44 5.38 51.58 5.38L51.58 5.38L51.58 5.38Q50.71 5.38 50.01 5.78L50.01 5.78L50.01 5.78Q49.31 6.19 48.90 6.90L48.90 6.90L48.90 6.90Q48.50 7.62 48.50 8.50L48.50 8.50L48.50 8.50Q48.50 9.38 48.90 10.09L48.90 10.09L48.90 10.09Q49.31 10.81 50.01 11.22L50.01 11.22L50.01 11.22Q50.71 11.63 51.58 11.63L51.58 11.63Z"></path>
    </g>
    <defs>
        <linearGradient gradientTransform="rotate(25)"
                        id="d8808f33-e334-437e-8ab6-c7e4928b590a" x1="0%" y1="0%" x2="100%" y2="0%">
            <stop offset="0%" stop-color="#F0D2A1" stop-opacity="1"></stop>
            <stop offset="100%" stop-color="#FCEB29" stop-opacity="1"></stop>
        </linearGradient>
    </defs>
    <g id="8bb406ea-7ae6-4234-86de-00b9b7ec6e2e" stroke="none"
       fill="url(#d8808f33-e334-437e-8ab6-c7e4928b590a)"
       transform="matrix(0.8370394110679626,0,0,0.8370394110679626,24.419354084483096,108.14844337278184)">
        <path d="M43.574 53.914l13.772-13.772-2.448-2.448-13.772 13.773c-1.928 1.929-2.931 4.436-2.931 6.907-.004 2.17.791 4.343 2.42 5.97l.199.199.049.024c1.597 1.473 3.659 2.201 5.723 2.197 2.471-.001 4.978-1.004 6.907-2.931l22.538-22.538c3.535-3.536 5.355-8.118 5.356-12.591.004-3.686-1.269-7.316-3.827-10.154v-.056l-.507-.507c-2.909-2.911-6.787-4.338-10.717-4.334-4.473.001-9.054 1.821-12.59 5.356L26.394 46.362c-5.143 5.144-7.78 11.799-7.78 18.274-.004 5.453 1.892 10.805 5.741 14.929v.027l.507.507c4.19 4.193 9.773 6.251 15.463 6.247 6.475-.001 13.13-2.638 18.274-7.78l17.068-17.068-2.448-2.448L56.15 76.118c-4.501 4.502-10.291 6.767-15.826 6.766-4.872-.004-9.515-1.737-13.015-5.233l-.001-.001c-3.497-3.5-5.23-8.143-5.234-13.016-.001-5.536 2.264-11.325 6.767-15.826l27.352-27.352c2.894-2.895 6.609-4.343 10.143-4.342 3.112.004 6.051 1.105 8.269 3.32 2.215 2.218 3.316 5.157 3.32 8.269.001 3.534-1.447 7.249-4.342 10.143L51.045 61.385c-1.286 1.287-2.927 1.918-4.46 1.917-1.351-.004-2.586-.473-3.522-1.407-.933-.936-1.402-2.171-1.406-3.522-.001-1.532.63-3.173 1.917-4.459z"></path>
    </g>
</svg>
