<svg xmlns="http://www.w3.org/2000/svg" viewBox="0 0 100 100">
    <defs>
        <linearGradient gradientTransform="rotate(25)"
                        id="d6e96c28-625f-4002-9e97-03fb409122ef" x1="0%" y1="0%" x2="100%" y2="0%">
            <stop offset="0%"
                  style="stop-color: #F0D2A1; stop-opacity: 1;"></stop>
            <stop offset="100%"
                  style="stop-color: #FCEB29; stop-opacity: 1;"></stop>
        </linearGradient>
    </defs>
    <g id="b0a3a280-ac49-49f1-a67f-5a4014ee6df7"
       transform="matrix(1.238083004951477,0,0,1.238083004951477,-22.290782928466797,-16.25054359436035)"
       stroke="none" fill="url(#d6e96c28-625f-4002-9e97-03fb409122ef)">
        <path d="M43.574 53.914l13.772-13.772-2.448-2.448-13.772 13.773c-1.928 1.929-2.931 4.436-2.931 6.907-.004 2.17.791 4.343 2.42 5.97l.199.199.049.024c1.597 1.473 3.659 2.201 5.723 2.197 2.471-.001 4.978-1.004 6.907-2.931l22.538-22.538c3.535-3.536 5.355-8.118 5.356-12.591.004-3.686-1.269-7.316-3.827-10.154v-.056l-.507-.507c-2.909-2.911-6.787-4.338-10.717-4.334-4.473.001-9.054 1.821-12.59 5.356L26.394 46.362c-5.143 5.144-7.78 11.799-7.78 18.274-.004 5.453 1.892 10.805 5.741 14.929v.027l.507.507c4.19 4.193 9.773 6.251 15.463 6.247 6.475-.001 13.13-2.638 18.274-7.78l17.068-17.068-2.448-2.448L56.15 76.118c-4.501 4.502-10.291 6.767-15.826 6.766-4.872-.004-9.515-1.737-13.015-5.233l-.001-.001c-3.497-3.5-5.23-8.143-5.234-13.016-.001-5.536 2.264-11.325 6.767-15.826l27.352-27.352c2.894-2.895 6.609-4.343 10.143-4.342 3.112.004 6.051 1.105 8.269 3.32 2.215 2.218 3.316 5.157 3.32 8.269.001 3.534-1.447 7.249-4.342 10.143L51.045 61.385c-1.286 1.287-2.927 1.918-4.46 1.917-1.351-.004-2.586-.473-3.522-1.407-.933-.936-1.402-2.171-1.406-3.522-.001-1.532.63-3.173 1.917-4.459z"></path>
    </g>
</svg>
